<svg width="32" height="32" viewBox="0 0 32 32" fill="none" xmlns="http://www.w3.org/2000/svg">
<path fill-rule="evenodd" clip-rule="evenodd" d="M17.0111 4.78725C17.8774 5.41953 18.5907 6.2818 19.3108 7.50839L17.5861 8.52099C16.95 7.43749 16.4039 6.82012 15.832 6.40268C15.2556 5.98193 14.5816 5.71096 13.5843 5.42668L14.1326 3.5033C15.2066 3.80944 16.1495 4.15828 17.0111 4.78725ZM13.8915 7.83821L14.5621 8.50232L20.1695 14.0555L20.3512 12.7725C20.5422 11.4238 21.6178 10.3731 22.9707 10.2138L24.4287 10.0421L25.2755 9.94235L25.5078 10.7628L27.3405 17.2353L27.6902 18.3372C28.7021 21.5253 27.7164 25.0097 25.1845 27.1953C21.8531 30.0711 16.8625 29.872 13.7709 26.7398L6.08851 18.9567L5.45059 18.3104L6.03256 17.6133L7.87027 15.4121L6.60963 14.0345L5.98844 13.3557L6.61332 12.6803L9.14379 9.94522L9.85521 9.17627L10.5903 9.92264L11.0522 10.3916L13.1898 8.46931L13.8915 7.83821ZM9.90043 12.0724L10.2978 12.4759L16.2015 18.4702L17.6264 17.0668L12.457 11.8181L13.8254 10.5875L20.1767 16.8775L21.8705 16.3072L22.3314 13.053C22.3951 12.6034 22.7536 12.2532 23.2046 12.2001L23.8158 12.1281L25.4204 17.7953L25.4247 17.8104L25.4294 17.8253L25.7839 18.9422C26.5537 21.3677 25.8039 24.0185 23.8776 25.6814C21.3431 27.8693 17.5464 27.7177 15.1943 25.3348L8.14982 18.198L9.24319 16.8883L13.3658 21.266L14.8217 19.8948L9.93108 14.7015L8.70627 13.3631L9.90043 12.0724ZM5.19244 24.8211C4.24029 24.0195 3.47671 22.9588 2.72772 21.4534L4.51833 20.5625C5.19341 21.9193 5.80708 22.7242 6.48047 23.291C7.15814 23.8615 7.96362 24.2491 9.13473 24.6724L8.45477 26.5533C7.20865 26.1028 6.1403 25.619 5.19244 24.8211Z" fill="black"/>
</svg>
